<svg width="512" height="512" viewBox="0 0 680 680" xmlns="http://www.w3.org/2000/svg">
  <defs>
    <clipPath id="stripclip">
      <rect x="238" y="240" width="204" height="36" rx="8"/>
    </clipPath>
  </defs>

  <!-- Outer rings -->
  <circle cx="340" cy="340" r="290" fill="none" stroke="#f5c842" stroke-width="1.5" opacity="0.15"/>
  <circle cx="340" cy="340" r="270" fill="none" stroke="#f5c842" stroke-width="0.75" opacity="0.1"/>

  <!-- Film holes top -->
  <rect x="160" y="182" width="18" height="12" rx="3" fill="#f5c842" opacity="0.4"/>
  <rect x="198" y="182" width="18" height="12" rx="3" fill="#f5c842" opacity="0.4"/>
  <rect x="236" y="182" width="18" height="12" rx="3" fill="#f5c842" opacity="0.4"/>
  <rect x="274" y="182" width="18" height="12" rx="3" fill="#f5c842" opacity="0.4"/>
  <rect x="312" y="182" width="18" height="12" rx="3" fill="#f5c842" opacity="0.4"/>
  <rect x="350" y="182" width="18" height="12" rx="3" fill="#f5c842" opacity="0.4"/>
  <rect x="388" y="182" width="18" height="12" rx="3" fill="#f5c842" opacity="0.4"/>
  <rect x="426" y="182" width="18" height="12" rx="3" fill="#f5c842" opacity="0.4"/>
  <rect x="464" y="182" width="18" height="12" rx="3" fill="#f5c842" opacity="0.4"/>
  <rect x="502" y="182" width="18" height="12" rx="3" fill="#f5c842" opacity="0.4"/>

  <!-- Film holes bottom -->
  <rect x="160" y="488" width="18" height="12" rx="3" fill="#f5c842" opacity="0.4"/>
  <rect x="198" y="488" width="18" height="12" rx="3" fill="#f5c842" opacity="0.4"/>
  <rect x="236" y="488" width="18" height="12" rx="3" fill="#f5c842" opacity="0.4"/>
  <rect x="274" y="488" width="18" height="12" rx="3" fill="#f5c842" opacity="0.4"/>
  <rect x="312" y="488" width="18" height="12" rx="3" fill="#f5c842" opacity="0.4"/>
  <rect x="350" y="488" width="18" height="12" rx="3" fill="#f5c842" opacity="0.4"/>
  <rect x="388" y="488" width="18" height="12" rx="3" fill="#f5c842" opacity="0.4"/>
  <rect x="426" y="488" width="18" height="12" rx="3" fill="#f5c842" opacity="0.4"/>
  <rect x="464" y="488" width="18" height="12" rx="3" fill="#f5c842" opacity="0.4"/>
  <rect x="502" y="488" width="18" height="12" rx="3" fill="#f5c842" opacity="0.4"/>

  <!-- Main square -->
  <rect x="190" y="190" width="300" height="300" rx="72" fill="#0e0e1a"/>
  <rect x="190" y="190" width="300" height="300" rx="72" fill="none" stroke="#f5c842" stroke-width="2.5"/>
  <rect x="202" y="202" width="276" height="276" rx="62" fill="none" stroke="#f5c842" stroke-width="0.75" opacity="0.3"/>

  <!-- Clapperboard body -->
  <rect x="238" y="268" width="204" height="148" rx="10" fill="#1a1a2e"/>
  <rect x="238" y="268" width="204" height="148" rx="10" fill="none" stroke="#f5c842" stroke-width="1.5" opacity="0.6"/>

  <!-- Clapperboard top bar with stripes -->
  <rect x="238" y="240" width="204" height="36" rx="8" fill="#f5c842"/>
  <g clip-path="url(#stripclip)">
    <rect x="238" y="240" width="204" height="36" fill="#f5c842"/>
    <polygon points="258,240 278,240 248,276 228,276" fill="#0a0a14"/>
    <polygon points="298,240 318,240 288,276 268,276" fill="#0a0a14"/>
    <polygon points="338,240 358,240 328,276 308,276" fill="#0a0a14"/>
    <polygon points="378,240 398,240 368,276 348,276" fill="#0a0a14"/>
    <polygon points="418,240 438,240 408,276 388,276" fill="#0a0a14"/>
    <polygon points="458,240 478,240 448,276 428,276" fill="#0a0a14"/>
  </g>

  <!-- Hinges -->
  <rect x="236" y="236" width="8" height="44" rx="3" fill="#c9a227"/>
  <rect x="436" y="236" width="8" height="44" rx="3" fill="#c9a227"/>

  <!-- Play triangle -->
  <polygon points="310,300 310,388 394,344" fill="#f5c842" opacity="0.95"/>

  <!-- Sparkles -->
  <circle cx="452" cy="228" r="5" fill="#f5c842" opacity="0.7"/>
  <circle cx="452" cy="228" r="2.5" fill="#f5c842"/>
  <line x1="452" y1="218" x2="452" y2="238" stroke="#f5c842" stroke-width="1" opacity="0.5"/>
  <line x1="442" y1="228" x2="462" y2="228" stroke="#f5c842" stroke-width="1" opacity="0.5"/>
  <circle cx="228" cy="452" r="4" fill="#f5c842" opacity="0.5"/>

  <!-- Wordmark -->
  <text x="340" y="540" text-anchor="middle" font-family="Georgia, serif" font-size="36" font-weight="700" fill="#f5c842" letter-spacing="6">FILMOBOT</text>
  <text x="340" y="568" text-anchor="middle" font-family="Georgia, serif" font-size="13" font-weight="400" fill="#f5c842" opacity="0.5" letter-spacing="3">YOUR CINEMA GUIDE</text>
  <line x1="260" y1="578" x2="420" y2="578" stroke="#f5c842" stroke-width="0.75" opacity="0.3"/>
</svg>
